<svg width="102" height="182" viewBox="0 0 102 182" fill="none" xmlns="http://www.w3.org/2000/svg">
<path d="M35.9971 34.4036C27.308 34.4036 22.3641 35.4529 15.2298 39.4164C10.1686 42.2282 3.28747 49.7783 3.05585 55.5688C2.22032 76.4572 10.7355 86.953 30.1886 93.7616C37.0814 96.174 45.9623 97.4217 53.1839 97.4217C56.7465 97.4217 57.2537 99.5052 59.7085 100.207C62.0303 100.87 64.705 99.4601 66.7901 101.082C69.8419 103.456 76.126 107.096 77.2135 110.63C79.3332 117.519 77.5318 122.129 77.5318 128.612C77.5318 133.345 69.4336 141.292 65.3578 143.173C58.8524 146.176 53.3713 150.923 46.8184 154.393C35.5988 160.332 24.7735 150.217 16.7416 143.333C12.2339 139.469 14.3561 126.333 14.5137 120.974C14.6352 116.842 22.5653 108.443 26.6876 107.527C33.6356 105.983 40.4398 101.025 47.455 100.286C55.1193 99.4794 61.1336 91.0441 68.3018 89.1466C77.6866 86.6624 83.8277 75.7824 92.5702 70.9255C97.3293 68.2815 99.0152 62.2233 99.0152 57.001C99.0152 49.5365 93.4817 44.9812 91.8541 38.0637C90.995 34.4127 84.0305 31.7326 81.8285 27.879C78.3947 21.8699 72.7153 22.3676 67.5062 19.763C57.4094 14.7146 45.647 9.89013 34.724 5.91816C29.7101 4.09491 19.8062 -0.837297 18.8104 8.62348C18.2667 13.7888 18.611 19.5136 18.8104 24.6963C19.2751 36.78 38.1536 45.284 38.8616 57.3193C39.1697 62.5567 41.726 67.2936 41.726 72.9942C41.726 79.2536 41.726 85.513 41.726 91.7723C41.726 106.996 41.726 122.22 41.726 137.445C41.726 145.892 44.5905 153.417 44.5905 161.872C44.5905 168.164 47.455 172.684 47.455 179.059" stroke="#FDED0E" stroke-width="5" stroke-linecap="round" stroke-linejoin="round"/>
</svg>
