<svg width="87" height="60" viewBox="0 0 87 60" fill="none" xmlns="http://www.w3.org/2000/svg">
<circle cx="41" cy="30" r="30" fill="#C4C4C4"/>
<circle cx="44" cy="31" r="29" fill="#3F3A3A"/>
<path d="M33.3247 25C33.2047 25 33.1027 24.964 33.0187 24.892C32.9467 24.808 32.9107 24.706 32.9107 24.586V12.832C32.9107 12.7 32.9467 12.598 33.0187 12.526C33.1027 12.442 33.2047 12.4 33.3247 12.4H37.7167C39.0967 12.4 40.1767 12.724 40.9567 13.372C41.7367 14.02 42.1267 14.956 42.1267 16.18C42.1267 17.092 41.8987 17.842 41.4427 18.43C40.9987 19.018 40.3687 19.426 39.5527 19.654L42.3247 24.442C42.3607 24.514 42.3787 24.58 42.3787 24.64C42.3787 24.736 42.3367 24.82 42.2527 24.892C42.1807 24.964 42.0967 25 42.0007 25H41.1367C40.9567 25 40.8127 24.958 40.7047 24.874C40.6087 24.79 40.5187 24.67 40.4347 24.514L37.8247 19.942H34.6747V24.586C34.6747 24.706 34.6327 24.808 34.5487 24.892C34.4647 24.964 34.3627 25 34.2427 25H33.3247ZM37.6447 18.412C39.4327 18.412 40.3267 17.662 40.3267 16.162C40.3267 14.662 39.4327 13.912 37.6447 13.912H34.6747V18.412H37.6447ZM45.1196 25C44.9996 25 44.8976 24.964 44.8136 24.892C44.7416 24.808 44.7056 24.706 44.7056 24.586V12.832C44.7056 12.7 44.7416 12.598 44.8136 12.526C44.8976 12.442 44.9996 12.4 45.1196 12.4H45.9476C46.1636 12.4 46.3136 12.484 46.3976 12.652L52.3736 21.832V12.832C52.3736 12.7 52.4096 12.598 52.4816 12.526C52.5656 12.442 52.6676 12.4 52.7876 12.4H53.6516C53.7836 12.4 53.8856 12.442 53.9576 12.526C54.0416 12.598 54.0836 12.7 54.0836 12.832V24.568C54.0836 24.688 54.0416 24.79 53.9576 24.874C53.8856 24.958 53.7896 25 53.6696 25H52.8056C52.6256 25 52.4816 24.916 52.3736 24.748L46.4156 15.658V24.586C46.4156 24.706 46.3736 24.808 46.2896 24.892C46.2056 24.964 46.1036 25 45.9836 25H45.1196ZM22.4957 46C22.3397 46 22.2197 45.964 22.1357 45.892C22.0517 45.82 21.9797 45.706 21.9197 45.55L19.3637 37.198L19.3277 37.018C19.3277 36.91 19.3637 36.82 19.4357 36.748C19.5197 36.676 19.6097 36.64 19.7057 36.64H20.4977C20.6177 36.64 20.7137 36.676 20.7857 36.748C20.8697 36.808 20.9237 36.874 20.9477 36.946L22.9457 43.732L25.0877 37.018C25.1117 36.922 25.1657 36.838 25.2497 36.766C25.3337 36.682 25.4477 36.64 25.5917 36.64H26.2037C26.3477 36.64 26.4617 36.682 26.5457 36.766C26.6297 36.838 26.6837 36.922 26.7077 37.018L28.8497 43.732L30.8477 36.946C30.8597 36.886 30.9017 36.82 30.9737 36.748C31.0577 36.676 31.1597 36.64 31.2797 36.64H32.0897C32.1857 36.64 32.2697 36.676 32.3417 36.748C32.4137 36.82 32.4497 36.91 32.4497 37.018L32.4137 37.198L29.8757 45.55C29.8157 45.706 29.7437 45.82 29.6597 45.892C29.5757 45.964 29.4497 46 29.2817 46H28.5797C28.2557 46 28.0577 45.85 27.9857 45.55L25.8977 39.106L23.8097 45.55C23.7137 45.85 23.5097 46 23.1977 46H22.4957ZM38.0312 46.18C36.7112 46.18 35.6852 45.808 34.9532 45.064C34.2332 44.32 33.8492 43.33 33.8012 42.094L33.7832 41.32L33.8012 40.546C33.8492 39.322 34.2392 38.338 34.9712 37.594C35.7032 36.838 36.7232 36.46 38.0312 36.46C39.3392 36.46 40.3592 36.838 41.0912 37.594C41.8232 38.338 42.2132 39.322 42.2612 40.546C42.2732 40.678 42.2792 40.936 42.2792 41.32C42.2792 41.704 42.2732 41.962 42.2612 42.094C42.2132 43.33 41.8232 44.32 41.0912 45.064C40.3712 45.808 39.3512 46.18 38.0312 46.18ZM38.0312 44.794C38.7872 44.794 39.3812 44.554 39.8132 44.074C40.2572 43.594 40.4972 42.904 40.5332 42.004C40.5452 41.884 40.5512 41.656 40.5512 41.32C40.5512 40.984 40.5452 40.756 40.5332 40.636C40.4972 39.736 40.2572 39.046 39.8132 38.566C39.3812 38.086 38.7872 37.846 38.0312 37.846C37.2752 37.846 36.6752 38.086 36.2312 38.566C35.7872 39.046 35.5532 39.736 35.5292 40.636L35.5112 41.32L35.5292 42.004C35.5532 42.904 35.7872 43.594 36.2312 44.074C36.6752 44.554 37.2752 44.794 38.0312 44.794ZM44.9472 46C44.8272 46 44.7252 45.964 44.6412 45.892C44.5692 45.808 44.5332 45.706 44.5332 45.586V37.072C44.5332 36.952 44.5692 36.85 44.6412 36.766C44.7252 36.682 44.8272 36.64 44.9472 36.64H45.7752C45.8952 36.64 45.9972 36.682 46.0812 36.766C46.1652 36.85 46.2072 36.952 46.2072 37.072V37.864C46.6992 37.048 47.5392 36.64 48.7272 36.64H49.4292C49.5492 36.64 49.6452 36.682 49.7172 36.766C49.8012 36.838 49.8432 36.934 49.8432 37.054V37.792C49.8432 37.912 49.8012 38.008 49.7172 38.08C49.6452 38.152 49.5492 38.188 49.4292 38.188H48.3492C47.7012 38.188 47.1912 38.38 46.8192 38.764C46.4472 39.136 46.2612 39.646 46.2612 40.294V45.586C46.2612 45.706 46.2192 45.808 46.1352 45.892C46.0512 45.964 45.9492 46 45.8292 46H44.9472ZM51.8031 46C51.6831 46 51.5811 45.964 51.4971 45.892C51.4251 45.808 51.3891 45.706 51.3891 45.586V33.634C51.3891 33.514 51.4251 33.418 51.4971 33.346C51.5811 33.262 51.6831 33.22 51.8031 33.22H52.6491C52.7691 33.22 52.8651 33.262 52.9371 33.346C53.0211 33.418 53.0631 33.514 53.0631 33.634V39.898L56.6091 36.946C56.6451 36.922 56.7051 36.874 56.7891 36.802C56.8731 36.742 56.9511 36.7 57.0231 36.676C57.1071 36.652 57.2091 36.64 57.3291 36.64H58.2831C58.3911 36.64 58.4811 36.676 58.5531 36.748C58.6251 36.82 58.6611 36.91 58.6611 37.018C58.6611 37.15 58.5891 37.264 58.4451 37.36L54.2871 40.816L58.8951 45.298C59.0391 45.418 59.1111 45.526 59.1111 45.622C59.1111 45.73 59.0751 45.82 59.0031 45.892C58.9311 45.964 58.8411 46 58.7331 46H57.7971C57.6171 46 57.4851 45.982 57.4011 45.946C57.3291 45.91 57.2211 45.826 57.0771 45.694L53.0631 41.86V45.586C53.0631 45.706 53.0211 45.808 52.9371 45.892C52.8651 45.964 52.7691 46 52.6491 46H51.8031ZM63.7165 46.18C62.8765 46.18 62.1685 46.048 61.5925 45.784C61.0285 45.508 60.6025 45.196 60.3145 44.848C60.0385 44.5 59.9005 44.212 59.9005 43.984C59.9005 43.864 59.9425 43.774 60.0265 43.714C60.1225 43.642 60.2185 43.606 60.3145 43.606H61.1245C61.2445 43.606 61.3525 43.666 61.4485 43.786C61.7365 44.122 62.0485 44.386 62.3845 44.578C62.7205 44.77 63.1705 44.866 63.7345 44.866C64.3585 44.866 64.8625 44.746 65.2465 44.506C65.6425 44.254 65.8405 43.912 65.8405 43.48C65.8405 43.192 65.7565 42.958 65.5885 42.778C65.4325 42.586 65.1565 42.424 64.7605 42.292C64.3765 42.148 63.8005 41.992 63.0325 41.824C61.9885 41.596 61.2445 41.266 60.8005 40.834C60.3685 40.402 60.1525 39.844 60.1525 39.16C60.1525 38.704 60.2845 38.272 60.5485 37.864C60.8245 37.444 61.2205 37.108 61.7365 36.856C62.2645 36.592 62.8945 36.46 63.6265 36.46C64.3945 36.46 65.0485 36.586 65.5885 36.838C66.1285 37.09 66.5305 37.39 66.7945 37.738C67.0705 38.074 67.2085 38.356 67.2085 38.584C67.2085 38.692 67.1665 38.782 67.0825 38.854C67.0105 38.926 66.9205 38.962 66.8125 38.962H66.0565C65.9125 38.962 65.7925 38.902 65.6965 38.782C65.5045 38.554 65.3365 38.38 65.1925 38.26C65.0605 38.128 64.8625 38.014 64.5985 37.918C64.3465 37.822 64.0225 37.774 63.6265 37.774C63.0505 37.774 62.6065 37.9 62.2945 38.152C61.9825 38.392 61.8265 38.71 61.8265 39.106C61.8265 39.358 61.8925 39.574 62.0245 39.754C62.1565 39.922 62.4085 40.078 62.7805 40.222C63.1645 40.366 63.7165 40.516 64.4365 40.672C65.5765 40.912 66.3805 41.26 66.8485 41.716C67.3285 42.16 67.5685 42.73 67.5685 43.426C67.5685 43.942 67.4185 44.41 67.1185 44.83C66.8185 45.25 66.3745 45.58 65.7865 45.82C65.2105 46.06 64.5205 46.18 63.7165 46.18Z" fill="#C4C4C4"/>
</svg>
